<svg xmlns="http://www.w3.org/2000/svg" xmlns:xlink="http://www.w3.org/1999/xlink" viewBox="0 0 1060.6 693.18"><defs><style>.cls-1{opacity:0.2;}.cls-2{fill:url(#Degradado_sin_nombre_9);}.cls-3{fill:url(#Degradado_sin_nombre_9-2);}.cls-4{fill:url(#Degradado_sin_nombre_9-3);}</style><linearGradient id="Degradado_sin_nombre_9" y1="498.91" x2="708.27" y2="498.91" gradientUnits="userSpaceOnUse"><stop offset="0" stop-color="#4793ff"/><stop offset="0.25" stop-color="#046462" stop-opacity="0"/><stop offset="0.26" stop-color="#09676d" stop-opacity="0.07"/><stop offset="0.29" stop-color="#17728f" stop-opacity="0.29"/><stop offset="0.32" stop-color="#247aad" stop-opacity="0.48"/><stop offset="0.34" stop-color="#2f82c6" stop-opacity="0.64"/><stop offset="0.37" stop-color="#3888db" stop-opacity="0.77"/><stop offset="0.4" stop-color="#3e8deb" stop-opacity="0.87"/><stop offset="0.43" stop-color="#4390f6" stop-opacity="0.94"/><stop offset="0.46" stop-color="#4692fd" stop-opacity="0.99"/><stop offset="0.5" stop-color="#4793ff"/><stop offset="0.75" stop-color="#046462" stop-opacity="0"/><stop offset="1" stop-color="#4793ff"/></linearGradient><linearGradient id="Degradado_sin_nombre_9-2" x1="132.08" y1="36.26" x2="441.04" y2="371.75" xlink:href="#Degradado_sin_nombre_9"/><linearGradient id="Degradado_sin_nombre_9-3" x1="617.61" y1="331.62" x2="1060.6" y2="331.62" xlink:href="#Degradado_sin_nombre_9"/></defs><g id="Layer_2" data-name="Layer 2"><g id="OBJECTS"><g class="cls-1"><path class="cls-2" d="M48.29,353.43c-32.77,182.57,171.64,73.34,259,57.73,45.26-7.8,98.31-17.16,115.48,34.33,15.6,48.38-18.73,98.31,15.6,140.44,24.76,30,65.08,34.94,88.89,63.25,26.29,31.25,58.43,39.7,98.35,43.28,35.11,3.15,71.76-2.83,81.3-42.63,7.79-32.51-19.53-52.42-48.79-54.57-53.81-4-132.57,19.56-157.33-45.22-20.29-53.06,34.32-98.31,14-146.68-17.16-40.57-82.7-57.73-123.27-60.86-96.75-6.24-170.09,57.74-263.71,67.1-56.18,4.68-65.54-28.08-71.78-73.34C46.73,277-14.13,314.42,3,340.94"/></g><g class="cls-1"><path class="cls-3" d="M73.25,200.51C53,248.88,123.19,269.17,156,261.36c45.26-9.36,124.84-56.17,165.41-12.48,17.16,18.72,15.6,45.25,39,60.86s53.05,12.48,70.22-7.81C480.52,244.2,390,228.59,354.13,213c-51.5-23.41-99.87-70.22-45.25-117,17.16-14,54.61-28.09,57.73-54.62,1.56-31.2-43.69-37.45-67.1-40.57-53-4.68-118.59,10.93-120.15,73.34-1.56,46.82,53,107.67-15.6,131.08-42.13,12.48-54.62-32.77-85.83-29.65,0,15.6-9.36,64,12.49,64"/></g><g class="cls-1"><path class="cls-4" d="M742.67,186.46C713,205.19,575.71,320.66,630.32,355c56.17,34.33,148.24-42.13,199.73,7.8,34.33,34.33-1.56,90.5,57.74,117,45.25,21.85,123.27-17.16,154.48-53.05,42.13-45.25,6.24-115.47-53.06-81.14-37.44,20.28-96.74,64-96.74-9.37,0-31.21,32.77-124.83-25-107.67C843.27,235.72,824.14,253,806.15,270c-17.81,16.74-38.42,31.7-55.14,49.26-14.14,14.86-26.08,25.51-48.73,22.73-19-2.32-34.68-15.08-34.34-35.33.58-33.56,36.55-45.17,55.53-65.22,13.54-14.3,40.09-50.08,13-64.29"/></g></g></g></svg>