<svg xmlns="http://www.w3.org/2000/svg" viewBox="0 0 69.69 61.18"><defs><style>.cls-1{isolation:isolate;}.cls-2{fill:#5b254e;}.cls-3{fill:#985965;}.cls-4{fill:#461642;}.cls-5{fill:#d2ccbf;opacity:0.2;mix-blend-mode:soft-light;}.cls-6{fill:#b06979;}.cls-7{fill:#d27f7c;}</style></defs><g class="cls-1"><g id="Layer_2" data-name="Layer 2"><g id="space"><path class="cls-2" d="M5,54.71S-2.6,13.34.94,0L29.27,4.73l8.48-.12-.55,6.56,32.49,3.37S70,26.33,64.27,34.3l-11,13.75S46.47,57.7,39.88,59.23C39.88,59.23,27.22,65.83,5,54.71Z"/><path class="cls-3" d="M.94,0S.78,14.27,13.75,28.51c0,0,20.17,2.37,37.79-2.56V20.41l5.85,2.91a47.56,47.56,0,0,0,12.3-8.78A181.53,181.53,0,0,0,33.85,8.08l3.9-3.47S23.17,0,.94,0Z"/><path class="cls-4" d="M13.75,28.51S5.62,45.27,5,54.71C5,54.71-1.34,26.41.94,0,.94,0,7,19.38,13.75,28.51Z"/><path class="cls-4" d="M51.54,20.41l1.7,6.3-8,24.63s10.76-18.84,12.1-28Z"/><path class="cls-5" d="M1.19.75s7.21,16.74,13,21.92,24.27.62,25.84-.51,1.31-3.92,9.78-5.18,9.31-3.31,7.56-4.06-14.5-.36-21.33-2.13S33.8,6.23,29.81,4.72,7.23-.44,1.19.75Z"/><path class="cls-6" d="M2.82,5.5s8.55,16.75,12.81,19S41.22,28.76,51.54,26a94.37,94.37,0,0,1-37.79,2.56S6.58,16.94,2.82,5.5Z"/><polygon class="cls-7" points="12.21 25.89 12.77 30.6 16.35 28.74 12.21 25.89"/><path class="cls-6" d="M55.55,22.4l1,4.69,2.88-5S56.53,21.77,55.55,22.4Z"/></g></g></g></svg>