<svg xmlns="http://www.w3.org/2000/svg" viewBox="0 0 21.44 20.4"><defs><style>.cls-1{fill:#5b254e;}.cls-2{fill:#985965;}.cls-3{fill:#461642;}.cls-4{fill:#b06979;}</style></defs><g id="Layer_2" data-name="Layer 2"><g id="space"><path class="cls-1" d="M8.05.05S6.35-.45,1.8,1.82a7.86,7.86,0,0,0-1.8,5L1.14,9.11S.47,14,1.52,17c0,0,4,3.57,8.81,2.9s11.11-9.4,11.11-9.4Z"/><path class="cls-2" d="M21.44,10.53l0,0v0a9.3,9.3,0,0,1-.71,1.19c-1.28,1.85-4.24,4.91-9,3.1A8.22,8.22,0,0,1,6,6.27c0-1.14-1.51-4-1.51-4C5,.71,7.69.11,8,.05h0A33.73,33.73,0,0,1,20.59,8.51Z"/><path class="cls-3" d="M0,6.86s.92-.08,2.62-1.72A5.83,5.83,0,0,0,4.52,2.3L6,6A10.69,10.69,0,0,1,1.14,9.11Z"/><path class="cls-3" d="M1.52,17a14,14,0,0,0,7.16,0c3.35-1.09,3.91-1.86,3.91-1.86s4.49,1.52,8.85-4.64c0,0-2,5.6-10.42,9.48C11,20,7,22,1.52,17Z"/><path class="cls-4" d="M21.41,10.57v0l-.71,1.19c-1.28,1.85-4.24,4.91-9,3.1A8.22,8.22,0,0,1,6,6.27c0-1.14-1.51-4-1.51-4C5,.71,7.69.11,8,.05c-.27.09-2.13.79-2.53,2S6,4.15,6.78,6.71s3.36,7.52,7.59,7.49C18.34,14.17,21.08,11,21.41,10.57Z"/></g></g></svg>