<svg xmlns="http://www.w3.org/2000/svg" xmlns:xlink="http://www.w3.org/1999/xlink" viewBox="0 0 661.15 424.95"><defs><style>.cls-1{isolation:isolate;}.cls-2,.cls-20,.cls-22,.cls-23,.cls-24{mix-blend-mode:screen;}.cls-2{fill:url(#radial-gradient);}.cls-10,.cls-11,.cls-12,.cls-13,.cls-14,.cls-15,.cls-16,.cls-17,.cls-18,.cls-19,.cls-3,.cls-4,.cls-5,.cls-6,.cls-7,.cls-8,.cls-9{fill:#fff;}.cls-3{opacity:0;}.cls-4{opacity:0.06;}.cls-5{opacity:0.13;}.cls-6{opacity:0.19;}.cls-7{opacity:0.25;}.cls-8{opacity:0.31;}.cls-9{opacity:0.38;}.cls-10{opacity:0.44;}.cls-11,.cls-21{opacity:0.5;}.cls-12{opacity:0.56;}.cls-13{opacity:0.63;}.cls-14{opacity:0.69;}.cls-15{opacity:0.75;}.cls-16{opacity:0.81;}.cls-17{opacity:0.88;}.cls-18{opacity:0.94;}.cls-20{fill:url(#radial-gradient-2);}.cls-22{fill:url(#radial-gradient-3);}.cls-23{fill:url(#radial-gradient-4);}.cls-24{fill:url(#radial-gradient-5);}</style><radialGradient id="radial-gradient" cx="-921.9" cy="749.61" r="29.57" gradientTransform="matrix(1, -0.06, -0.06, -1, 1194.24, 836.69)" gradientUnits="userSpaceOnUse"><stop offset="0" stop-color="#fff"/><stop offset="0" stop-color="#fff" stop-opacity="0.99"/><stop offset="0.08" stop-color="#fff" stop-opacity="0.78"/><stop offset="0.17" stop-color="#fff" stop-opacity="0.6"/><stop offset="0.26" stop-color="#fff" stop-opacity="0.44"/><stop offset="0.35" stop-color="#fff" stop-opacity="0.3"/><stop offset="0.45" stop-color="#fff" stop-opacity="0.19"/><stop offset="0.55" stop-color="#fff" stop-opacity="0.11"/><stop offset="0.67" stop-color="#fff" stop-opacity="0.05"/><stop offset="0.8" stop-color="#fff" stop-opacity="0.01"/><stop offset="1" stop-color="#fff" stop-opacity="0"/></radialGradient><radialGradient id="radial-gradient-2" cx="-796.96" cy="474.23" r="15.29" xlink:href="#radial-gradient"/><radialGradient id="radial-gradient-3" cx="-546.31" cy="577.29" r="11.05" xlink:href="#radial-gradient"/><radialGradient id="radial-gradient-4" cx="-762.2" cy="567.37" r="7.32" xlink:href="#radial-gradient"/><radialGradient id="radial-gradient-5" cx="-1140.61" cy="691.99" r="15.3" xlink:href="#radial-gradient"/></defs><g class="cls-1"><g id="Layer_2" data-name="Layer 2"><g id="OBJECTS"><path class="cls-2" d="M259.8,140.28A29.57,29.57,0,1,0,232,171.53,29.57,29.57,0,0,0,259.8,140.28Z"/><path class="cls-3" d="M233.92,143.66a3.54,3.54,0,1,1-5.39-4.6C229.8,137.57,353.05,0,353.05,0,353.5.39,235.19,142.17,233.92,143.66Z"/><path class="cls-4" d="M233.83,143.58a3.42,3.42,0,0,1-5.21-4.44C229.85,137.7,345.46,8.72,345.5,8.76,346,9.16,235.05,142.14,233.83,143.58Z"/><path class="cls-5" d="M233.73,143.5a3.3,3.3,0,0,1-5-4.28C229.9,137.83,337.87,17.45,338,17.52,338.43,17.93,234.92,142.12,233.73,143.5Z"/><path class="cls-6" d="M233.64,143.42a3.17,3.17,0,1,1-4.83-4.12C230,138,330.28,26.17,330.4,26.28,330.89,26.7,234.78,142.09,233.64,143.42Z"/><path class="cls-7" d="M233.55,143.34a3.05,3.05,0,0,1-4.65-4C230,138.09,322.68,34.9,322.85,35,323.36,35.47,234.64,142.06,233.55,143.34Z"/><path class="cls-8" d="M233.45,143.26a2.93,2.93,0,1,1-4.46-3.81c1-1.23,86.1-95.83,86.31-95.65C315.82,44.24,234.5,142,233.45,143.26Z"/><path class="cls-9" d="M233.36,143.18a2.81,2.81,0,1,1-4.27-3.65c1-1.18,78.41-87.19,78.66-87C308.28,53,234.37,142,233.36,143.18Z"/><path class="cls-10" d="M233.27,143.1a2.69,2.69,0,0,1-4.09-3.49c1-1.12,70.73-78.54,71-78.29C300.75,61.78,234.23,142,233.27,143.1Z"/><path class="cls-11" d="M233.17,143a2.56,2.56,0,1,1-3.9-3.33c.92-1.07,63-69.9,63.38-69.61C293.21,70.55,234.09,142,233.17,143Z"/><path class="cls-12" d="M233.08,143a2.44,2.44,0,1,1-3.71-3.18c.87-1,55.36-61.25,55.73-60.93C285.67,79.32,234,141.92,233.08,143Z"/><path class="cls-13" d="M233,142.87a2.32,2.32,0,0,1-3.53-3c.83-1,47.68-52.61,48.09-52.25C278.14,88.1,233.82,141.89,233,142.87Z"/><path class="cls-14" d="M232.89,142.79a2.2,2.2,0,0,1-3.34-2.86c.79-.92,40-44,40.45-43.57S233.68,141.86,232.89,142.79Z"/><path class="cls-15" d="M232.8,142.71a2.07,2.07,0,1,1-3.15-2.7c.74-.87,32.3-35.32,32.8-34.89S233.54,141.83,232.8,142.71Z"/><path class="cls-16" d="M232.71,142.63a2,2,0,0,1-3-2.54c.7-.82,24.62-26.68,25.16-26.21S233.41,141.81,232.71,142.63Z"/><path class="cls-17" d="M232.61,142.55a1.83,1.83,0,1,1-2.78-2.38c.66-.77,16.94-18,17.52-17.53S233.27,141.78,232.61,142.55Z"/><path class="cls-18" d="M232.52,142.47a1.71,1.71,0,1,1-2.59-2.22c.61-.72,9.25-9.39,9.87-8.86S233.13,141.75,232.52,142.47Z"/><path class="cls-19" d="M232.43,142.39a1.59,1.59,0,1,1-.18-2.24A1.59,1.59,0,0,1,232.43,142.39Z"/><path class="cls-20" d="M386.31,408.76a15.3,15.3,0,1,0-14.38,16.16A15.31,15.31,0,0,0,386.31,408.76Z"/><path class="cls-3" d="M372.92,410.5a1.83,1.83,0,1,1-2.79-2.38c.66-.77,64.4-71.92,64.4-71.92C434.77,336.4,373.58,409.73,372.92,410.5Z"/><path class="cls-4" d="M372.87,410.46a1.77,1.77,0,1,1-2.69-2.3c.63-.74,60.43-67.44,60.45-67.43C430.87,340.94,373.51,409.72,372.87,410.46Z"/><path class="cls-5" d="M372.82,410.42a1.71,1.71,0,1,1-2.59-2.22c.61-.71,56.45-63,56.49-62.94C427,345.48,373.44,409.7,372.82,410.42Z"/><path class="cls-6" d="M372.77,410.38a1.64,1.64,0,1,1-2.49-2.14c.59-.69,52.47-58.5,52.54-58.44C423.07,350,373.36,409.69,372.77,410.38Z"/><path class="cls-7" d="M372.73,410.34a1.58,1.58,0,0,1-2.41-2c.57-.67,48.51-54,48.59-54C419.18,354.55,373.29,409.67,372.73,410.34Z"/><path class="cls-8" d="M372.68,410.3a1.52,1.52,0,0,1-2.31-2c.55-.64,44.53-49.57,44.64-49.47C415.28,359.08,373.22,409.66,372.68,410.3Z"/><path class="cls-9" d="M372.63,410.26a1.45,1.45,0,1,1-2.21-1.89c.52-.61,40.56-45.09,40.68-45C411.38,363.62,373.15,409.65,372.63,410.26Z"/><path class="cls-10" d="M372.58,410.21a1.39,1.39,0,1,1-2.11-1.8c.5-.58,36.58-40.62,36.73-40.49S373.08,409.63,372.58,410.21Z"/><path class="cls-11" d="M372.53,410.17a1.32,1.32,0,1,1-2-1.72c.47-.56,32.6-36.15,32.77-36S373,409.62,372.53,410.17Z"/><path class="cls-12" d="M372.49,410.13a1.27,1.27,0,0,1-1.93-1.64C371,408,399.2,376.81,399.39,377S372.94,409.6,372.49,410.13Z"/><path class="cls-13" d="M372.44,410.09a1.2,1.2,0,1,1-1.83-1.56c.43-.5,24.66-27.21,24.88-27S372.87,409.59,372.44,410.09Z"/><path class="cls-14" d="M372.39,410.05a1.14,1.14,0,1,1-1.73-1.48c.41-.47,20.68-22.73,20.92-22.53S372.8,409.57,372.39,410.05Z"/><path class="cls-15" d="M372.34,410a1.07,1.07,0,1,1-1.63-1.39c.38-.45,16.71-18.27,17-18.05S372.73,409.56,372.34,410Z"/><path class="cls-16" d="M372.29,410a1,1,0,1,1-1.53-1.31c.36-.43,12.73-13.8,13-13.56S372.66,409.54,372.29,410Z"/><path class="cls-17" d="M372.24,409.93a.94.94,0,1,1-1.43-1.23c.33-.4,8.76-9.33,9.06-9.07S372.58,409.53,372.24,409.93Z"/><path class="cls-18" d="M372.2,409.89a.89.89,0,0,1-1.35-1.15c.32-.37,4.79-4.86,5.11-4.58S372.51,409.52,372.2,409.89Z"/><path class="cls-19" d="M372.15,409.84a.82.82,0,1,1-.09-1.15A.82.82,0,0,1,372.15,409.84Z"/><g class="cls-21"><path class="cls-22" d="M626.29,291.53a11.05,11.05,0,1,0-10.39,11.68A11,11,0,0,0,626.29,291.53Z"/><path class="cls-3" d="M616.62,292.79a1.33,1.33,0,1,1-2-1.72c.48-.56,46.55-52,46.55-52C661.32,239.24,617.09,292.23,616.62,292.79Z"/><path class="cls-4" d="M616.58,292.76a1.28,1.28,0,1,1-1.94-1.66c.46-.54,43.67-48.75,43.69-48.73S617,292.22,616.58,292.76Z"/><path class="cls-5" d="M616.55,292.73a1.23,1.23,0,0,1-1.88-1.6c.44-.52,40.8-45.52,40.83-45.49S617,292.21,616.55,292.73Z"/><path class="cls-6" d="M616.51,292.7a1.18,1.18,0,1,1-1.8-1.54c.42-.5,37.92-42.28,38-42.24S616.94,292.2,616.51,292.7Z"/><path class="cls-7" d="M616.48,292.67a1.14,1.14,0,1,1-1.74-1.48c.41-.48,35.06-39.05,35.12-39S616.89,292.19,616.48,292.67Z"/><path class="cls-8" d="M616.44,292.64a1.09,1.09,0,1,1-1.66-1.42c.39-.46,32.18-35.82,32.26-35.76S616.84,292.18,616.44,292.64Z"/><path class="cls-9" d="M616.41,292.61a1,1,0,0,1-1.6-1.36c.38-.44,29.31-32.59,29.4-32.51S616.79,292.17,616.41,292.61Z"/><path class="cls-10" d="M616.37,292.58a1,1,0,0,1-1.41.12,1,1,0,0,1-.11-1.42c.36-.42,26.43-29.36,26.54-29.27S616.73,292.16,616.37,292.58Z"/><path class="cls-11" d="M616.34,292.55a1,1,0,1,1-1.46-1.24c.34-.4,23.57-26.13,23.69-26S616.68,292.15,616.34,292.55Z"/><path class="cls-12" d="M616.3,292.52a.91.91,0,0,1-1.28.11.92.92,0,0,1-.11-1.29c.33-.38,20.7-22.9,20.84-22.78S616.63,292.14,616.3,292.52Z"/><path class="cls-13" d="M616.27,292.49a.87.87,0,0,1-1.32-1.12c.31-.37,17.82-19.67,18-19.53S616.58,292.13,616.27,292.49Z"/><path class="cls-14" d="M616.23,292.46a.81.81,0,0,1-1.15.1.83.83,0,0,1-.1-1.16c.3-.35,14.95-16.44,15.12-16.29S616.53,292.12,616.23,292.46Z"/><path class="cls-15" d="M616.2,292.44a.77.77,0,0,1-1.09.08.77.77,0,0,1-.09-1.09c.28-.33,12.08-13.2,12.26-13.05S616.48,292.11,616.2,292.44Z"/><path class="cls-16" d="M616.16,292.41a.73.73,0,0,1-1.11-1c.27-.31,9.21-10,9.41-9.8S616.43,292.1,616.16,292.41Z"/><path class="cls-17" d="M616.13,292.38a.68.68,0,0,1-1,.07.67.67,0,0,1-.08-1c.24-.29,6.33-6.74,6.55-6.56S616.38,292.09,616.13,292.38Z"/><path class="cls-18" d="M616.09,292.35a.64.64,0,1,1-1-.83c.23-.27,3.46-3.51,3.7-3.31S616.32,292.08,616.09,292.35Z"/><path class="cls-19" d="M616.06,292.32a.61.61,0,0,1-.84.06.6.6,0,0,1-.06-.83.59.59,0,0,1,.83-.07A.6.6,0,0,1,616.06,292.32Z"/></g><g class="cls-21"><path class="cls-23" d="M407.63,314.22a7.33,7.33,0,1,0-6.89,7.74A7.32,7.32,0,0,0,407.63,314.22Z"/><path class="cls-3" d="M401.22,315.06a.88.88,0,0,1-1.34-1.14c.31-.37,30.84-34.45,30.84-34.45S401.53,314.69,401.22,315.06Z"/><path class="cls-4" d="M401.19,315a.85.85,0,0,1-1.29-1.1c.31-.36,28.94-32.3,29-32.3S401.5,314.68,401.19,315Z"/><path class="cls-5" d="M401.17,315a.82.82,0,0,1-1.15.09.81.81,0,0,1-.09-1.15c.29-.35,27-30.16,27.05-30.15S401.46,314.67,401.17,315Z"/><path class="cls-6" d="M401.15,315a.79.79,0,1,1-1.2-1c.28-.33,25.13-28,25.16-28S401.43,314.67,401.15,315Z"/><path class="cls-7" d="M401.12,315a.76.76,0,0,1-1.15-1c.27-.32,23.23-25.88,23.27-25.85S401.4,314.66,401.12,315Z"/><path class="cls-8" d="M401.1,315a.73.73,0,0,1-1,.08.72.72,0,0,1-.08-1c.26-.31,21.32-23.74,21.37-23.7S401.36,314.65,401.1,315Z"/><path class="cls-9" d="M401.08,314.94A.7.7,0,1,1,400,314c.25-.29,19.42-21.59,19.48-21.54S401.33,314.65,401.08,314.94Z"/><path class="cls-10" d="M401.05,314.92a.65.65,0,0,1-.93.07.67.67,0,0,1-.08-.94c.24-.27,17.52-19.45,17.59-19.39S401.29,314.64,401.05,314.92Z"/><path class="cls-11" d="M401,314.9a.62.62,0,0,1-.89.07.65.65,0,0,1-.08-.9c.23-.26,15.62-17.31,15.7-17.24S401.26,314.63,401,314.9Z"/><path class="cls-12" d="M401,314.88a.61.61,0,0,1-.85.07.61.61,0,0,1-.07-.86c.21-.25,13.71-15.17,13.8-15.09S401.23,314.63,401,314.88Z"/><path class="cls-13" d="M401,314.86a.58.58,0,0,1-.82.06.57.57,0,0,1-.06-.81c.21-.24,11.81-13,11.91-12.94S401.19,314.62,401,314.86Z"/><path class="cls-14" d="M401,314.84a.54.54,0,0,1-.77.06.56.56,0,0,1-.06-.77c.2-.22,9.91-10.89,10-10.79S401.16,314.61,401,314.84Z"/><path class="cls-15" d="M400.94,314.82a.51.51,0,1,1-.78-.67c.18-.21,8-8.74,8.12-8.64S401.12,314.6,400.94,314.82Z"/><path class="cls-16" d="M400.92,314.8a.49.49,0,0,1-.74-.63c.17-.2,6.1-6.6,6.23-6.49S401.09,314.6,400.92,314.8Z"/><path class="cls-17" d="M400.89,314.78a.45.45,0,0,1-.69-.59,61.22,61.22,0,0,1,4.34-4.34C404.7,310,401.05,314.59,400.89,314.78Z"/><path class="cls-18" d="M400.87,314.76a.42.42,0,1,1-.64-.55,15.54,15.54,0,0,1,2.44-2.19C402.83,312.16,401,314.58,400.87,314.76Z"/><path class="cls-19" d="M400.85,314.74a.4.4,0,0,1-.56.05.41.41,0,0,1,0-.56.39.39,0,0,1,.55,0A.39.39,0,0,1,400.85,314.74Z"/></g><g class="cls-21"><path class="cls-24" d="M30.56,211.37a15.29,15.29,0,1,0-14.37,16.16A15.29,15.29,0,0,0,30.56,211.37Z"/><path class="cls-3" d="M17.18,213.12a1.83,1.83,0,0,1-2.79-2.38c.66-.77,64.4-71.92,64.4-71.92C79,139,17.83,212.35,17.18,213.12Z"/><path class="cls-4" d="M17.13,213.08a1.77,1.77,0,0,1-2.7-2.3c.64-.75,60.43-67.45,60.45-67.43C75.12,143.55,17.76,212.33,17.13,213.08Z"/><path class="cls-5" d="M17.08,213a1.71,1.71,0,0,1-2.6-2.22c.62-.72,56.46-63,56.5-62.94C71.23,148.09,17.69,212.32,17.08,213Z"/><path class="cls-6" d="M17,213a1.64,1.64,0,1,1-2.5-2.13c.59-.69,52.48-58.51,52.54-58.45C67.33,152.63,17.62,212.3,17,213Z"/><path class="cls-7" d="M17,213a1.58,1.58,0,1,1-2.4-2c.57-.66,48.5-54,48.59-54C63.43,157.16,17.55,212.29,17,213Z"/><path class="cls-8" d="M16.93,212.91a1.51,1.51,0,1,1-2.3-2c.54-.63,44.53-49.56,44.63-49.47C59.53,161.7,17.48,212.27,16.93,212.91Z"/><path class="cls-9" d="M16.89,212.87A1.45,1.45,0,1,1,14.68,211c.52-.61,40.55-45.09,40.68-45S17.41,212.26,16.89,212.87Z"/><path class="cls-10" d="M16.84,212.83A1.39,1.39,0,0,1,14.72,211c.5-.58,36.59-40.62,36.74-40.49S17.34,212.25,16.84,212.83Z"/><path class="cls-11" d="M16.79,212.79a1.33,1.33,0,0,1-2-1.72c.48-.56,32.61-36.16,32.78-36S17.27,212.23,16.79,212.79Z"/><path class="cls-12" d="M16.74,212.75a1.26,1.26,0,1,1-1.92-1.64c.45-.53,28.63-31.68,28.83-31.52S17.2,212.22,16.74,212.75Z"/><path class="cls-13" d="M16.69,212.71a1.2,1.2,0,1,1-1.82-1.56c.43-.51,24.66-27.21,24.87-27S17.12,212.2,16.69,212.71Z"/><path class="cls-14" d="M16.65,212.67a1.15,1.15,0,0,1-1.61.12,1.14,1.14,0,0,1-.12-1.6c.4-.48,20.68-22.74,20.92-22.54S17.05,212.19,16.65,212.67Z"/><path class="cls-15" d="M16.6,212.62a1.08,1.08,0,0,1-1.52.12,1.06,1.06,0,0,1-.11-1.51c.38-.45,16.7-18.27,17-18S17,212.17,16.6,212.62Z"/><path class="cls-16" d="M16.55,212.58a1,1,0,0,1-1.42.12,1,1,0,0,1-.12-1.43c.37-.42,12.74-13.8,13-13.56S16.91,212.16,16.55,212.58Z"/><path class="cls-17" d="M16.5,212.54a.94.94,0,0,1-1.33.11,1,1,0,0,1-.11-1.34c.34-.39,8.76-9.32,9.06-9.07S16.84,212.14,16.5,212.54Z"/><path class="cls-18" d="M16.45,212.5a.87.87,0,0,1-1.24.1.89.89,0,0,1-.1-1.25c.32-.37,4.79-4.85,5.11-4.58S16.77,212.13,16.45,212.5Z"/><path class="cls-19" d="M16.4,212.46a.82.82,0,0,1-1.15.09.8.8,0,0,1-.09-1.15.82.82,0,1,1,1.24,1.06Z"/></g></g></g></g></svg>